<svg xmlns="http://www.w3.org/2000/svg" width="124.272" height="120.001">
  <path fill="#e5e4c7" d="M82.495 87.417c-3.702 7.503-11.426 12.667-20.359 12.667S45.479 94.92 41.777 87.417C19.676 84.715 3.215 77.74.288 69.284c5.741 28.917 31.245 50.718 61.848 50.718s56.107-21.801 61.848-50.718c-2.927 8.456-19.388 15.431-41.489 18.133z"/>
  <g fill="#e5e4c7">
    <path d="M60.328 82.388c-.433 0-.789.151-1.07.455s-.421.679-.421 1.125c0 .462.145.841.433 1.137.289.296.641.443 1.058.443.422 0 .776-.149 1.062-.448.286-.298.428-.676.428-1.132 0-.459-.145-.837-.436-1.134-.289-.297-.641-.446-1.054-.446z"/>
    <path d="M62.215 72.187c-7.52 0-13.615 5.027-13.615 11.228s6.096 11.228 13.615 11.228S75.83 89.616 75.83 83.415s-6.096-11.228-13.615-11.228zm6.324 7.462c.104-.109.237-.165.398-.165.152 0 .282.053.393.16.109.106.164.237.164.392s-.055.286-.164.395c-.11.108-.24.162-.393.162-.154 0-.286-.055-.394-.165-.108-.11-.162-.24-.162-.392.001-.148.053-.277.158-.387zm-.994 2.739h-.717l-1.757 1.461 1.65 1.645h.823v.818H66.34l-2.357-2.356v1.539h.809v.818h-2.569v-.732c-.052.06-.096.124-.154.18-.482.458-1.062.687-1.739.687-.697 0-1.282-.232-1.754-.697-.473-.464-.709-1.058-.709-1.781 0-.313.054-.597.143-.861-.092.104-.191.193-.299.261-.231.146-.491.243-.779.293s-.725.075-1.309.075h-.464v1.732h.871v.842h-2.734v-.842h.847v-5.047h-.847v-.842h2.405c.707 0 1.235.05 1.587.15.352.1.646.327.883.68.237.354.356.771.356 1.251 0 .275-.055.523-.135.757.062-.077.119-.157.192-.227.478-.463 1.06-.694 1.747-.694.674 0 1.253.228 1.737.685s.726 1.053.726 1.788c0 .603-.171 1.108-.496 1.524h.768v-5.096h-.842v-.818h1.761v4.206l1.752-1.398h-.778v-.76h2.589v.759zm2.613 3.924h-2.371v-.818h.726v-3.049h-.726v-.817h1.646v3.866h.726v.818z"/>
    <path d="M56.787 80.505c-.2-.055-.534-.082-1.002-.082h-.629v2.502h.581c.662 0 1.12-.095 1.375-.283.255-.189.382-.522.382-1 0-.303-.068-.555-.204-.755-.135-.199-.303-.326-.503-.382z"/>
  </g>
  <path fill="#e5e4c7" d="M115.106 34.741c-4.204 7.91-26.455 13.947-53.287 13.947-26.247 0-48.114-5.776-52.99-13.432C4.485 42.122 1.427 49.883 0 58.202c1.916 9.053 19.288 16.578 42.812 19.29 3.996-6.477 11.155-10.795 19.324-10.795s15.328 4.318 19.324 10.795c23.524-2.713 40.896-10.237 42.812-19.29-1.463-8.529-4.645-16.468-9.166-23.461z"/>
  <g fill="#e5e4c7">
    <path d="M61.819 25.353c20.433 0 37.464-4.379 41.307-10.188C92.106 5.716 77.794 0 62.136 0c-15.842 0-30.31 5.849-41.382 15.497 4.263 5.643 21.024 9.856 41.065 9.856zM62.136.604c3.065 0 5.549.768 5.549 1.715s-2.484 1.715-5.549 1.715-5.549-.768-5.549-1.715S59.071.604 62.136.604z"/>
    <path d="M103.126 18.165c-3.844 5.809-20.874 10.188-41.307 10.188-20.041 0-36.801-4.213-41.064-9.856-4.613 4.019-8.64 8.694-11.925 13.886 4.876 7.656 26.742 13.432 52.99 13.432 26.832 0 49.083-6.037 53.287-13.947-3.317-5.129-7.362-9.741-11.981-13.703z"/>
  </g>
</svg>